<?xml version="1.0" encoding="utf-8"?>
<svg viewBox="174.723 98.663 150 150" xmlns="http://www.w3.org/2000/svg">
  <path fill="currentColor" d="M 313.939 186.081 C 313.939 155.826 299.876 129.934 279.93 119.113 L 268.292 149.887 L 268.292 107.66 C 268.292 104.328 266.242 101.628 263.728 101.628 L 236.332 101.628 C 233.812 101.628 231.767 104.328 231.767 107.66 L 231.767 149.887 L 220.124 119.113 C 200.178 129.934 186.118 155.826 186.118 186.081 L 186.118 210.214 L 313.939 210.214 Z M 318.504 222.277 L 181.551 222.277 C 179.028 222.277 176.988 224.978 176.988 228.311 L 176.988 240.374 C 176.988 243.709 179.028 246.406 181.551 246.406 L 318.504 246.406 C 321.019 246.406 323.072 243.709 323.072 240.374 L 323.072 228.311 C 323.072 224.978 321.019 222.277 318.504 222.277 Z" lang="pt" style=""/>
</svg>